<svg xmlns="http://www.w3.org/2000/svg" width="1920" height="1080"><path d="M2160,-260L1960,-260L2160,-60Z" fill="#8aa0bc" stroke="#8aa0bc" stroke-width="1.51"/><path d="M1960,-260L1960,-60L2160,-60Z" fill="#88a4be" stroke="#88a4be" stroke-width="1.51"/><path d="M2160,-60L1960,-60L2160,140Z" fill="#819db3" stroke="#819db3" stroke-width="1.51"/><path d="M1960,-60L1960,140L2160,140Z" fill="#80a0b5" stroke="#80a0b5" stroke-width="1.51"/><path d="M2160,140L1960,140L2160,340Z" fill="#7498ab" stroke="#7498ab" stroke-width="1.51"/><path d="M1960,140L1960,340L2160,340Z" fill="#719bad" stroke="#719bad" stroke-width="1.51"/><path d="M2160,340L1960,340L2160,540Z" fill="#6192aa" stroke="#6192aa" stroke-width="1.51"/><path d="M1960,340L1960,540L2160,540Z" fill="#5b94b1" stroke="#5b94b1" stroke-width="1.51"/><path d="M1960,940L2160,940L2160,740Z" fill="#2b79b0" stroke="#2b79b0" stroke-width="1.51"/><path d="M1960,740L1960,940L2160,740Z" fill="#3083b7" stroke="#3083b7" stroke-width="1.51"/><path d="M2160,540L1960,540L2160,740Z" fill="#498ab0" stroke="#498ab0" stroke-width="1.51"/><path d="M1960,540L1960,740L2160,740Z" fill="#428bb7" stroke="#428bb7" stroke-width="1.51"/><path d="M2160,940L1960,940L2160,1140Z" fill="#1d6eaa" stroke="#1d6eaa" stroke-width="1.51"/><path d="M1960,940L1960,1140L2160,1140Z" fill="#186dab" stroke="#186dab" stroke-width="1.51"/><path d="M2160,1140L1960,1140L2160,1340Z" fill="#0b5ea2" stroke="#0b5ea2" stroke-width="1.51"/><path d="M1960,1140L1960,1340L2160,1340Z" fill="#095ca0" stroke="#095ca0" stroke-width="1.51"/><path d="M1960,-260L1760,-260L1960,-60Z" fill="#8faec8" stroke="#8faec8" stroke-width="1.51"/><path d="M1760,-260L1760,-60L1960,-60Z" fill="#8db1c7" stroke="#8db1c7" stroke-width="1.51"/><path d="M1960,-60L1760,-60L1960,140Z" fill="#86abbf" stroke="#86abbf" stroke-width="1.51"/><path d="M1760,-60L1760,140L1960,140Z" fill="#85aebe" stroke="#85aebe" stroke-width="1.51"/><path d="M1760,940L1960,940L1960,740Z" fill="#2d86bc" stroke="#2d86bc" stroke-width="1.51"/><path d="M1760,740L1760,940L1960,740Z" fill="#3490c1" stroke="#3490c1" stroke-width="1.51"/><path d="M1960,540L1760,540L1960,740Z" fill="#4c97bc" stroke="#4c97bc" stroke-width="1.51"/><path d="M1760,540L1760,740L1960,740Z" fill="#4698c0" stroke="#4698c0" stroke-width="1.51"/><path d="M1960,140L1760,140L1960,340Z" fill="#79a6b7" stroke="#79a6b7" stroke-width="1.51"/><path d="M1760,140L1760,340L1960,340Z" fill="#75a8b6" stroke="#75a8b6" stroke-width="1.51"/><path d="M1760,540L1960,540L1960,340Z" fill="#5d9db8" stroke="#5d9db8" stroke-width="1.51"/><path d="M1760,340L1760,540L1960,340Z" fill="#67a3b7" stroke="#67a3b7" stroke-width="1.51"/><path d="M1960,940L1760,940L1960,1140Z" fill="#1f7bb6" stroke="#1f7bb6" stroke-width="1.51"/><path d="M1760,940L1760,1140L1960,1140Z" fill="#1e79b5" stroke="#1e79b5" stroke-width="1.51"/><path d="M1760,1340L1960,1340L1960,1140Z" fill="#0d65a7" stroke="#0d65a7" stroke-width="1.51"/><path d="M1760,1140L1760,1340L1960,1140Z" fill="#136eb0" stroke="#136eb0" stroke-width="1.51"/><path d="M1760,-260L1560,-260L1760,-60Z" fill="#94bacd" stroke="#94bacd" stroke-width="1.51"/><path d="M1560,-260L1560,-60L1760,-60Z" fill="#93bdcc" stroke="#93bdcc" stroke-width="1.51"/><path d="M1760,-60L1560,-60L1760,140Z" fill="#8bb7c4" stroke="#8bb7c4" stroke-width="1.51"/><path d="M1560,-60L1560,140L1760,140Z" fill="#8ab9c3" stroke="#8ab9c3" stroke-width="1.51"/><path d="M1760,140L1560,140L1760,340Z" fill="#7eb2bc" stroke="#7eb2bc" stroke-width="1.51"/><path d="M1560,140L1560,340L1760,340Z" fill="#7ab4bc" stroke="#7ab4bc" stroke-width="1.51"/><path d="M1760,340L1560,340L1760,540Z" fill="#6aabbb" stroke="#6aabbb" stroke-width="1.51"/><path d="M1560,340L1560,540L1760,540Z" fill="#63adbf" stroke="#63adbf" stroke-width="1.51"/><path d="M1760,540L1560,540L1760,740Z" fill="#51a3c1" stroke="#51a3c1" stroke-width="1.51"/><path d="M1560,540L1560,740L1760,740Z" fill="#4ba3c5" stroke="#4ba3c5" stroke-width="1.51"/><path d="M1560,1140L1760,1140L1760,940Z" fill="#2480b8" stroke="#2480b8" stroke-width="1.51"/><path d="M1560,940L1560,1140L1760,940Z" fill="#2a89bd" stroke="#2a89bd" stroke-width="1.51"/><path d="M1760,740L1560,740L1760,940Z" fill="#3897c4" stroke="#3897c4" stroke-width="1.51"/><path d="M1560,740L1560,940L1760,940Z" fill="#3595c3" stroke="#3595c3" stroke-width="1.51"/><path d="M1760,1140L1560,1140L1760,1340Z" fill="#1b76b3" stroke="#1b76b3" stroke-width="1.51"/><path d="M1560,1140L1560,1340L1760,1340Z" fill="#1d73af" stroke="#1d73af" stroke-width="1.51"/><path d="M1560,-260L1360,-260L1560,-60Z" fill="#9bc6d4" stroke="#9bc6d4" stroke-width="1.51"/><path d="M1360,-260L1360,-60L1560,-60Z" fill="#9acad3" stroke="#9acad3" stroke-width="1.51"/><path d="M1560,-60L1360,-60L1560,140Z" fill="#92c3ca" stroke="#92c3ca" stroke-width="1.51"/><path d="M1360,-60L1360,140L1560,140Z" fill="#91c6c9" stroke="#91c6c9" stroke-width="1.51"/><path d="M1560,140L1360,140L1560,340Z" fill="#84bec2" stroke="#84bec2" stroke-width="1.51"/><path d="M1360,140L1360,340L1560,340Z" fill="#81c0c2" stroke="#81c0c2" stroke-width="1.51"/><path d="M1560,340L1360,340L1560,540Z" fill="#70b7c1" stroke="#70b7c1" stroke-width="1.51"/><path d="M1360,340L1360,540L1560,540Z" fill="#6bb9c5" stroke="#6bb9c5" stroke-width="1.51"/><path d="M1560,540L1360,540L1560,740Z" fill="#58afc8" stroke="#58afc8" stroke-width="1.51"/><path d="M1360,540L1360,740L1560,740Z" fill="#53afcc" stroke="#53afcc" stroke-width="1.51"/><path d="M1560,740L1360,740L1560,940Z" fill="#41a3cb" stroke="#41a3cb" stroke-width="1.51"/><path d="M1360,740L1360,940L1560,940Z" fill="#40a1ca" stroke="#40a1ca" stroke-width="1.51"/><path d="M1560,940L1360,940L1560,1140Z" fill="#3191c2" stroke="#3191c2" stroke-width="1.51"/><path d="M1360,940L1360,1140L1560,1140Z" fill="#3390c1" stroke="#3390c1" stroke-width="1.51"/><path d="M1560,1140L1360,1140L1560,1340Z" fill="#2881ba" stroke="#2881ba" stroke-width="1.51"/><path d="M1360,1140L1360,1340L1560,1340Z" fill="#2b7fb5" stroke="#2b7fb5" stroke-width="1.51"/><path d="M1360,-260L1160,-260L1360,-60Z" fill="#a3d3d9" stroke="#a3d3d9" stroke-width="1.51"/><path d="M1160,-260L1160,-60L1360,-60Z" fill="#a3d5d5" stroke="#a3d5d5" stroke-width="1.51"/><path d="M1360,-60L1160,-60L1360,140Z" fill="#99d0d0" stroke="#99d0d0" stroke-width="1.51"/><path d="M1160,-60L1160,140L1360,140Z" fill="#9ad1cc" stroke="#9ad1cc" stroke-width="1.51"/><path d="M1360,140L1160,140L1360,340Z" fill="#8ccbc8" stroke="#8ccbc8" stroke-width="1.51"/><path d="M1160,140L1160,340L1360,340Z" fill="#8acbc4" stroke="#8acbc4" stroke-width="1.51"/><path d="M1360,340L1160,340L1360,540Z" fill="#78c4c7" stroke="#78c4c7" stroke-width="1.51"/><path d="M1160,340L1160,540L1360,540Z" fill="#74c4c8" stroke="#74c4c8" stroke-width="1.51"/><path d="M1360,540L1160,540L1360,740Z" fill="#60bbce" stroke="#60bbce" stroke-width="1.51"/><path d="M1160,540L1160,740L1360,740Z" fill="#5ebacf" stroke="#5ebacf" stroke-width="1.51"/><path d="M1160,1140L1360,1140L1360,940Z" fill="#3a98c5" stroke="#3a98c5" stroke-width="1.51"/><path d="M1160,940L1160,1140L1360,940Z" fill="#43a0c7" stroke="#43a0c7" stroke-width="1.51"/><path d="M1360,740L1160,740L1360,940Z" fill="#4bafd1" stroke="#4bafd1" stroke-width="1.51"/><path d="M1160,740L1160,940L1360,940Z" fill="#4cabcd" stroke="#4cabcd" stroke-width="1.51"/><path d="M1360,1140L1160,1140L1360,1340Z" fill="#358dc0" stroke="#358dc0" stroke-width="1.51"/><path d="M1160,1140L1160,1340L1360,1340Z" fill="#3b89b9" stroke="#3b89b9" stroke-width="1.51"/><path d="M1160,-60L960,-60L1160,140Z" fill="#a3d8cc" stroke="#a3d8cc" stroke-width="1.51"/><path d="M960,-60L960,140L1160,140Z" fill="#a3d9c7" stroke="#a3d9c7" stroke-width="1.51"/><path d="M1160,140L960,140L1160,340Z" fill="#96d3c4" stroke="#96d3c4" stroke-width="1.51"/><path d="M960,140L960,340L1160,340Z" fill="#93d3c0" stroke="#93d3c0" stroke-width="1.51"/><path d="M1160,340L960,340L1160,540Z" fill="#83ccc3" stroke="#83ccc3" stroke-width="1.51"/><path d="M960,340L960,540L1160,540Z" fill="#7fccc4" stroke="#7fccc4" stroke-width="1.51"/><path d="M1160,540L960,540L1160,740Z" fill="#6ec3ca" stroke="#6ec3ca" stroke-width="1.51"/><path d="M960,540L960,740L1160,740Z" fill="#6bc2ca" stroke="#6bc2ca" stroke-width="1.51"/><path d="M1160,740L960,740L1160,940Z" fill="#5bb7cd" stroke="#5bb7cd" stroke-width="1.51"/><path d="M960,740L960,940L1160,940Z" fill="#5cb3c8" stroke="#5cb3c8" stroke-width="1.51"/><path d="M960,1340L1160,1340L1160,1140Z" fill="#478eb6" stroke="#478eb6" stroke-width="1.51"/><path d="M960,1140L960,1340L1160,1140Z" fill="#4e97ba" stroke="#4e97ba" stroke-width="1.51"/><path d="M1160,940L960,940L1160,1140Z" fill="#4fa5c4" stroke="#4fa5c4" stroke-width="1.51"/><path d="M960,940L960,1140L1160,1140Z" fill="#52a2bf" stroke="#52a2bf" stroke-width="1.51"/><path d="M960,-60L1160,-60L1160,-260Z" fill="#a9dad2" stroke="#a9dad2" stroke-width="1.51"/><path d="M960,-260L960,-60L1160,-260Z" fill="#b0ded4" stroke="#b0ded4" stroke-width="1.51"/><path d="M760,1340L960,1340L960,1140Z" fill="#5894b2" stroke="#5894b2" stroke-width="1.51"/><path d="M760,1140L760,1340L960,1140Z" fill="#609cb6" stroke="#609cb6" stroke-width="1.51"/><path d="M760,1140L960,1140L960,940Z" fill="#5ea5bd" stroke="#5ea5bd" stroke-width="1.51"/><path d="M760,940L760,1140L960,940Z" fill="#66adbe" stroke="#66adbe" stroke-width="1.51"/><path d="M760,940L960,940L960,740Z" fill="#67b7c5" stroke="#67b7c5" stroke-width="1.51"/><path d="M760,740L760,940L960,740Z" fill="#71bfc7" stroke="#71bfc7" stroke-width="1.51"/><path d="M760,740L960,740L960,540Z" fill="#75c6c7" stroke="#75c6c7" stroke-width="1.51"/><path d="M760,540L760,740L960,540Z" fill="#80cbc4" stroke="#80cbc4" stroke-width="1.51"/><path d="M760,540L960,540L960,340Z" fill="#88d0c1" stroke="#88d0c1" stroke-width="1.51"/><path d="M760,340L760,540L960,340Z" fill="#93d4bd" stroke="#93d4bd" stroke-width="1.51"/><path d="M760,340L960,340L960,140Z" fill="#9bd7bd" stroke="#9bd7bd" stroke-width="1.51"/><path d="M760,140L760,340L960,140Z" fill="#a5dbbe" stroke="#a5dbbe" stroke-width="1.51"/><path d="M760,140L960,140L960,-60Z" fill="#abddc4" stroke="#abddc4" stroke-width="1.51"/><path d="M760,-60L760,140L960,-60Z" fill="#b2e1c5" stroke="#b2e1c5" stroke-width="1.51"/><path d="M760,-60L960,-60L960,-260Z" fill="#b4e1cd" stroke="#b4e1cd" stroke-width="1.51"/><path d="M760,-260L760,-60L960,-260Z" fill="#bce4cf" stroke="#bce4cf" stroke-width="1.51"/><path d="M560,1140L760,1140L760,940Z" fill="#6fabb9" stroke="#6fabb9" stroke-width="1.51"/><path d="M560,940L560,1140L760,940Z" fill="#77b2ba" stroke="#77b2ba" stroke-width="1.51"/><path d="M760,-260L560,-260L760,-60Z" fill="#c4e8cc" stroke="#c4e8cc" stroke-width="1.51"/><path d="M560,-260L560,-60L760,-60Z" fill="#c4e8c7" stroke="#c4e8c7" stroke-width="1.51"/><path d="M760,-60L560,-60L760,140Z" fill="#bae4c2" stroke="#bae4c2" stroke-width="1.51"/><path d="M560,-60L560,140L760,140Z" fill="#bbe5be" stroke="#bbe5be" stroke-width="1.51"/><path d="M760,140L560,140L760,340Z" fill="#addfbb" stroke="#addfbb" stroke-width="1.51"/><path d="M560,140L560,340L760,340Z" fill="#acdeb6" stroke="#acdeb6" stroke-width="1.51"/><path d="M760,340L560,340L760,540Z" fill="#9cd8ba" stroke="#9cd8ba" stroke-width="1.51"/><path d="M560,340L560,540L760,540Z" fill="#9ad7bb" stroke="#9ad7bb" stroke-width="1.51"/><path d="M560,940L760,940L760,740Z" fill="#79bcc1" stroke="#79bcc1" stroke-width="1.51"/><path d="M560,740L560,940L760,740Z" fill="#81c4c3" stroke="#81c4c3" stroke-width="1.51"/><path d="M760,540L560,540L760,740Z" fill="#8acfc1" stroke="#8acfc1" stroke-width="1.51"/><path d="M560,540L560,740L760,740Z" fill="#8acdc1" stroke="#8acdc1" stroke-width="1.51"/><path d="M760,1140L560,1140L760,1340Z" fill="#6b9fb4" stroke="#6b9fb4" stroke-width="1.51"/><path d="M560,1140L560,1340L760,1340Z" fill="#6e9aac" stroke="#6e9aac" stroke-width="1.51"/><path d="M560,-260L360,-260L560,-60Z" fill="#cfecce" stroke="#cfecce" stroke-width="1.51"/><path d="M360,-260L360,-60L560,-60Z" fill="#cfedcc" stroke="#cfedcc" stroke-width="1.51"/><path d="M560,-60L360,-60L560,140Z" fill="#c6e9c4" stroke="#c6e9c4" stroke-width="1.51"/><path d="M360,-60L360,140L560,140Z" fill="#c6e9c3" stroke="#c6e9c3" stroke-width="1.51"/><path d="M560,140L360,140L560,340Z" fill="#b8e3bc" stroke="#b8e3bc" stroke-width="1.51"/><path d="M360,140L360,340L560,340Z" fill="#b7e3bb" stroke="#b7e3bb" stroke-width="1.51"/><path d="M560,340L360,340L560,540Z" fill="#a8dcbc" stroke="#a8dcbc" stroke-width="1.51"/><path d="M360,340L360,540L560,540Z" fill="#a6dbc0" stroke="#a6dbc0" stroke-width="1.51"/><path d="M560,540L360,540L560,740Z" fill="#97d3c3" stroke="#97d3c3" stroke-width="1.51"/><path d="M360,540L360,740L560,740Z" fill="#96d1c6" stroke="#96d1c6" stroke-width="1.51"/><path d="M560,740L360,740L560,940Z" fill="#89c7c6" stroke="#89c7c6" stroke-width="1.51"/><path d="M360,740L360,940L560,940Z" fill="#89c2c5" stroke="#89c2c5" stroke-width="1.51"/><path d="M360,1340L560,1340L560,1140Z" fill="#769db0" stroke="#769db0" stroke-width="1.51"/><path d="M360,1140L360,1340L560,1140Z" fill="#7ca5b7" stroke="#7ca5b7" stroke-width="1.51"/><path d="M560,940L360,940L560,1140Z" fill="#7fb5be" stroke="#7fb5be" stroke-width="1.51"/><path d="M360,940L360,1140L560,1140Z" fill="#80b0bc" stroke="#80b0bc" stroke-width="1.51"/><path d="M360,-60L160,-60L360,140Z" fill="#d0edc9" stroke="#d0edc9" stroke-width="1.51"/><path d="M160,-60L160,140L360,140Z" fill="#cfedc9" stroke="#cfedc9" stroke-width="1.51"/><path d="M360,140L160,140L360,340Z" fill="#c3e8c1" stroke="#c3e8c1" stroke-width="1.51"/><path d="M160,140L160,340L360,340Z" fill="#c0e7c1" stroke="#c0e7c1" stroke-width="1.51"/><path d="M160,-60L360,-60L360,-260Z" fill="#d6efd0" stroke="#d6efd0" stroke-width="1.51"/><path d="M160,-260L160,-60L360,-260Z" fill="#dcf1d5" stroke="#dcf1d5" stroke-width="1.51"/><path d="M360,740L160,740L360,940Z" fill="#94cbcb" stroke="#94cbcb" stroke-width="1.51"/><path d="M160,740L160,940L360,940Z" fill="#93c6cb" stroke="#93c6cb" stroke-width="1.51"/><path d="M160,1340L360,1340L360,1140Z" fill="#80a0b5" stroke="#80a0b5" stroke-width="1.51"/><path d="M160,1140L160,1340L360,1140Z" fill="#85a8bd" stroke="#85a8bd" stroke-width="1.51"/><path d="M360,940L160,940L360,1140Z" fill="#8ab8c3" stroke="#8ab8c3" stroke-width="1.51"/><path d="M160,940L160,1140L360,1140Z" fill="#89b3c2" stroke="#89b3c2" stroke-width="1.51"/><path d="M360,340L160,340L360,540Z" fill="#b3e1c0" stroke="#b3e1c0" stroke-width="1.51"/><path d="M160,340L160,540L360,540Z" fill="#afdfc6" stroke="#afdfc6" stroke-width="1.51"/><path d="M160,740L360,740L360,540Z" fill="#9dd4ca" stroke="#9dd4ca" stroke-width="1.51"/><path d="M160,540L160,740L360,540Z" fill="#a4d8ca" stroke="#a4d8ca" stroke-width="1.51"/><path d="M160,-260L-40,-260L160,-60Z" fill="#e0f3da" stroke="#e0f3da" stroke-width="1.51"/><path d="M-40,-260L-40,-60L160,-60Z" fill="#def3d9" stroke="#def3d9" stroke-width="1.51"/><path d="M160,-60L-40,-60L160,140Z" fill="#d6efd0" stroke="#d6efd0" stroke-width="1.51"/><path d="M-40,-60L-40,140L160,140Z" fill="#d5efcf" stroke="#d5efcf" stroke-width="1.51"/><path d="M160,140L-40,140L160,340Z" fill="#c9eac8" stroke="#c9eac8" stroke-width="1.51"/><path d="M-40,140L-40,340L160,340Z" fill="#c6e9c8" stroke="#c6e9c8" stroke-width="1.51"/><path d="M160,340L-40,340L160,540Z" fill="#b9e3c7" stroke="#b9e3c7" stroke-width="1.51"/><path d="M-40,340L-40,540L160,540Z" fill="#b5e2cc" stroke="#b5e2cc" stroke-width="1.51"/><path d="M160,540L-40,540L160,740Z" fill="#a8dacf" stroke="#a8dacf" stroke-width="1.51"/><path d="M-40,540L-40,740L160,740Z" fill="#a5d7d3" stroke="#a5d7d3" stroke-width="1.51"/><path d="M-40,1140L160,1140L160,940Z" fill="#8db5c6" stroke="#8db5c6" stroke-width="1.51"/><path d="M-40,940L-40,1140L160,940Z" fill="#91bccb" stroke="#91bccb" stroke-width="1.51"/><path d="M160,740L-40,740L160,940Z" fill="#9acdd2" stroke="#9acdd2" stroke-width="1.51"/><path d="M-40,740L-40,940L160,940Z" fill="#99c8d1" stroke="#99c8d1" stroke-width="1.51"/><path d="M160,1140L-40,1140L160,1340Z" fill="#88a9c2" stroke="#88a9c2" stroke-width="1.51"/><path d="M-40,1140L-40,1340L160,1340Z" fill="#87a4bd" stroke="#87a4bd" stroke-width="1.51"/><path d="M-40,-60L-240,-60L-40,140Z" fill="#ddf2d7" stroke="#ddf2d7" stroke-width="1.51"/><path d="M-240,-60L-240,140L-40,140Z" fill="#dcf2d6" stroke="#dcf2d6" stroke-width="1.51"/><path d="M-40,140L-240,140L-40,340Z" fill="#d0edcf" stroke="#d0edcf" stroke-width="1.51"/><path d="M-240,140L-240,340L-40,340Z" fill="#cdecce" stroke="#cdecce" stroke-width="1.51"/><path d="M-40,340L-240,340L-40,540Z" fill="#bfe6ce" stroke="#bfe6ce" stroke-width="1.51"/><path d="M-240,340L-240,540L-40,540Z" fill="#bce4d2" stroke="#bce4d2" stroke-width="1.51"/><path d="M-40,540L-240,540L-40,740Z" fill="#afddd5" stroke="#afddd5" stroke-width="1.51"/><path d="M-240,540L-240,740L-40,740Z" fill="#acdad9" stroke="#acdad9" stroke-width="1.51"/><path d="M-40,740L-240,740L-40,940Z" fill="#a1d0d8" stroke="#a1d0d8" stroke-width="1.51"/><path d="M-240,740L-240,940L-40,940Z" fill="#a0cbd7" stroke="#a0cbd7" stroke-width="1.51"/><path d="M-240,1340L-40,1340L-40,1140Z" fill="#8ca6c2" stroke="#8ca6c2" stroke-width="1.51"/><path d="M-240,1140L-240,1340L-40,1140Z" fill="#91adca" stroke="#91adca" stroke-width="1.51"/><path d="M-40,940L-240,940L-40,1140Z" fill="#96bed0" stroke="#96bed0" stroke-width="1.51"/><path d="M-240,940L-240,1140L-40,1140Z" fill="#96b8cf" stroke="#96b8cf" stroke-width="1.51"/><path d="M-240,-60L-40,-60L-40,-260Z" fill="#e3f5dd" stroke="#e3f5dd" stroke-width="1.51"/><path d="M-240,-260L-240,-60L-40,-260Z" fill="#e9f6e2" stroke="#e9f6e2" stroke-width="1.51"/></svg>